<svg width="37" height="33" viewBox="0 0 37 33" fill="none" xmlns="http://www.w3.org/2000/svg">
<path d="M20.9345 3.42039C20.9345 4.76835 19.8578 5.84077 18.5545 5.84077C17.2512 5.84077 16.1744 4.76835 16.1744 3.42039C16.1744 2.07242 17.2512 1 18.5545 1C19.8578 1 20.9345 2.07242 20.9345 3.42039Z" stroke="black" stroke-width="2"/>
<path d="M35.6553 15.4499C22.9358 18.4885 18.944 20.853 1.39638 15.4499C-0.837891 21.8559 6.6097 25.2473 17.7811 25.2473C28.9525 25.2473 37.8896 22.6095 35.6553 15.4499Z" stroke="black" stroke-width="2" stroke-linecap="round"/>
<path d="M12.9391 14.1841L12.7765 16.6826L17.7565 17.0364L17.9191 14.538L12.9391 14.1841ZM19.0655 10.5274C19.8756 9.41279 19.6284 7.84508 18.5136 7.0258C17.3987 6.20652 15.8382 6.44591 15.0281 7.56049L19.0655 10.5274ZM17.9191 14.538C18.009 13.1548 18.3367 12.0954 18.6238 11.4061C18.7674 11.0612 18.9004 10.8103 18.9868 10.6604C19.0299 10.5855 19.0611 10.5364 19.0759 10.5138C19.0833 10.5025 19.0865 10.4979 19.0849 10.5001C19.0842 10.5012 19.0822 10.504 19.079 10.5086C19.0774 10.5108 19.0755 10.5135 19.0732 10.5167C19.0721 10.5182 19.0709 10.5199 19.0696 10.5217C19.069 10.5226 19.0683 10.5235 19.0676 10.5245C19.0673 10.5249 19.0667 10.5257 19.0666 10.5259C19.066 10.5266 19.0655 10.5274 17.0468 9.04393C15.0281 7.56049 15.0275 7.56125 15.027 7.56202C15.0268 7.56228 15.0262 7.56306 15.0258 7.56359C15.0251 7.56465 15.0243 7.56575 15.0235 7.56687C15.0218 7.56913 15.0201 7.5715 15.0183 7.57401C15.0147 7.57902 15.0108 7.58453 15.0065 7.59054C14.998 7.60256 14.9882 7.61658 14.9772 7.63259C14.9551 7.66462 14.928 7.70464 14.8968 7.75254C14.8343 7.8483 14.7547 7.97581 14.6634 8.13422C14.481 8.45075 14.2509 8.89256 14.0177 9.45251C13.5511 10.573 13.0699 12.1722 12.9391 14.1841L17.9191 14.538Z" fill="black"/>
<path d="M18.1535 9.04382C17.772 10.1262 19.1931 15.1449 23.7392 13.5657" stroke="black" stroke-width="2" stroke-linecap="round"/>
<path d="M26.3459 7.53651L19.643 24.1168" stroke="black" stroke-width="2" stroke-linecap="round"/>
<path d="M16.9272 25.0274C17.461 24.2617 18.4544 23.9725 19.3189 24.3312L19.5223 24.4156C20.3502 24.7591 20.8525 25.6119 20.752 26.503L20.3015 30.4939C20.1569 31.775 18.8606 32.5805 17.6494 32.1418L15.5781 31.3916C14.337 30.9421 13.8557 29.4329 14.609 28.3525L16.9272 25.0274Z" fill="black"/>
</svg>
