<svg width="43" height="39" viewBox="0 0 43 39" fill="none" xmlns="http://www.w3.org/2000/svg">
<circle cx="21.5638" cy="3.95947" r="2.95947" stroke="black" stroke-width="2"/>
<path d="M41.5963 17.8849C26.6962 21.4024 22.0201 24.1396 1.46433 17.8849C-1.15296 25.3006 7.57136 29.2265 20.6579 29.2265C33.7444 29.2265 44.2136 26.173 41.5963 17.8849Z" stroke="black" stroke-width="2" stroke-linecap="round"/>
<path d="M15.408 16.4603L15.2438 18.9549L20.233 19.2833L20.3972 16.7887L15.408 16.4603ZM21.8116 11.9505C22.6297 10.8383 22.3912 9.27342 21.2789 8.45537C20.1666 7.63733 18.6018 7.87585 17.7837 8.98813L21.8116 11.9505ZM20.3972 16.7887C20.5057 15.1404 20.9012 13.8739 21.251 13.0439C21.426 12.6286 21.5891 12.3239 21.6976 12.1378C21.7518 12.0449 21.792 11.9821 21.813 11.9504C21.8234 11.9345 21.829 11.9265 21.829 11.9265C21.829 11.9265 21.8277 11.9285 21.8248 11.9325C21.8234 11.9345 21.8215 11.937 21.8194 11.94C21.8183 11.9415 21.8171 11.9431 21.8158 11.9449C21.8152 11.9458 21.8145 11.9467 21.8138 11.9476C21.8134 11.9481 21.8129 11.9488 21.8127 11.9491C21.8122 11.9498 21.8116 11.9505 19.7977 10.4693C17.7837 8.98813 17.7832 8.98889 17.7826 8.98966C17.7824 8.98993 17.7818 8.99072 17.7814 8.99125C17.7806 8.99233 17.7798 8.99345 17.779 8.9946C17.7773 8.9969 17.7755 8.99935 17.7736 9.00194C17.7699 9.00711 17.7657 9.01287 17.7612 9.0192C17.7521 9.03186 17.7415 9.04681 17.7295 9.06406C17.7054 9.09853 17.6756 9.14218 17.6408 9.19486C17.5712 9.30019 17.4816 9.4419 17.3784 9.61899C17.172 9.97288 16.9098 10.47 16.6434 11.1022C16.1103 12.3673 15.5582 14.1784 15.408 16.4603L20.3972 16.7887Z" fill="black"/>
<path d="M21.0941 10.4692C20.6472 11.7222 22.3119 17.5319 27.6373 15.7038" stroke="black" stroke-width="2" stroke-linecap="round"/>
<path d="M30.6909 8.72433L22.839 27.9179" stroke="black" stroke-width="2" stroke-linecap="round"/>
<path d="M19.8086 28.7578C20.3462 27.9959 21.3389 27.7066 22.2016 28.0603L22.9372 28.362C23.7654 28.7016 24.2671 29.5501 24.1655 30.4394L23.5653 35.695C23.419 36.9755 22.1176 37.7854 20.9042 37.351L17.6659 36.192C16.4208 35.7463 15.9433 34.2365 16.7057 33.156L19.8086 28.7578Z" fill="black"/>
</svg>
