<svg width="37" height="33" viewBox="0 0 37 33" fill="none" xmlns="http://www.w3.org/2000/svg">
<g clip-path="url(#clip0_586_4626)">
<path d="M0.659912 29L12.1736 9.45002C16.5955 19.2184 15.5955 14.2185 23.0955 1.71845L35.9529 27.0941C36.964 29.0897 35.5139 31.45 33.2768 31.45L23.0955 31.45" stroke="black" stroke-width="2" stroke-linecap="round"/>
<path d="M18.5955 23.7185C18.8573 24.2047 19.4638 24.3867 19.9501 24.1248C20.4364 23.863 20.6183 23.2565 20.3565 22.7703L18.5955 23.7185ZM11.5955 10.7185L18.5955 23.7185L20.3565 22.7703L13.3565 9.77025L11.5955 10.7185Z" fill="black"/>
<path d="M28.1599 11C26.467 11.9813 23.0685 16.0115 20.2468 14.1716C16.8609 12.2091 17.4252 12.5362 18.1306 12.9451" stroke="black" stroke-width="2"/>
</g>
<defs>
<clipPath id="clip0_586_4626">
<rect width="37" height="33" fill="white"/>
</clipPath>
</defs>
</svg>
