<svg width="32" height="31" viewBox="0 0 32 31" fill="none" xmlns="http://www.w3.org/2000/svg">
<g clip-path="url(#clip0_586_4635)">
<path d="M3.80975 23.5174C23.4147 30.1114 28.1216 30.6554 28.0245 30.1032L29.3864 28.1367" stroke="black" stroke-width="2" stroke-linecap="round"/>
<path d="M13.917 26.3723C19.5144 22.9277 20.555 21.349 20.3756 20.9902C20.1962 20.6314 10.1496 19.3756 10.6878 16.6845C11.226 13.9935 21.452 6.45852 21.452 6.45852C21.452 6.45852 23.6048 10.7642 21.9902 13.9935C20.3756 17.2227 1 11.3024 1 11.3024" stroke="black" stroke-width="2" stroke-linecap="round"/>
<path d="M21.452 14.5317L26.8341 13.4552" stroke="black" stroke-width="2" stroke-linecap="round"/>
<circle cx="27.3723" cy="4.30568" r="3.30568" stroke="black" stroke-width="2"/>
<path d="M12.859 16.6026C12.859 16.6026 12.7495 16.2592 14.3055 17.1934C15.8614 18.1276 20.0148 20.6798 20.0148 20.6798" stroke="black" stroke-width="3" stroke-linecap="round"/>
</g>
<defs>
<clipPath id="clip0_586_4635">
<rect width="32" height="31" fill="white"/>
</clipPath>
</defs>
</svg>
