<svg width="26" height="26" viewBox="0 0 26 26" fill="none" xmlns="http://www.w3.org/2000/svg">
<g clip-path="url(#clip0_131_2958)">
<path d="M19.5 13C18.3586 13.0013 17.237 12.7017 16.2483 12.1314C15.2596 11.561 14.4387 10.7401 13.8684 9.75138C13.2982 8.76264 12.9986 7.64103 13 6.49962C13.0014 5.35821 13.3037 4.23734 13.8764 3.25H4.5955L4.55 2.86867C4.45664 2.07848 4.07665 1.35 3.48204 0.821279C2.88743 0.292559 2.11951 0.000338906 1.32383 0L1.08333 0C0.796015 0 0.520465 0.114137 0.317301 0.317301C0.114137 0.520465 0 0.796016 0 1.08333C0 1.37065 0.114137 1.6462 0.317301 1.84937C0.520465 2.05253 0.796015 2.16667 1.08333 2.16667H1.32383C1.58918 2.1667 1.84528 2.26412 2.04357 2.44044C2.24186 2.61676 2.36854 2.85973 2.39958 3.12325L3.89025 15.7983C4.04501 17.1164 4.67835 18.3319 5.67007 19.214C6.66178 20.0961 7.94284 20.5834 9.27008 20.5833H20.5833C20.8706 20.5833 21.1462 20.4692 21.3494 20.266C21.5525 20.0629 21.6667 19.7873 21.6667 19.5C21.6667 19.2127 21.5525 18.9371 21.3494 18.734C21.1462 18.5308 20.8706 18.4167 20.5833 18.4167H9.27008C8.59937 18.415 7.94561 18.2059 7.39845 17.818C6.8513 17.43 6.43757 16.8824 6.214 16.25H19.1284C20.3984 16.2501 21.628 15.8039 22.6025 14.9895C23.5769 14.175 24.2342 13.0441 24.4595 11.7943L24.7173 10.3653C24.1147 11.1823 23.3287 11.8464 22.4224 12.304C21.5162 12.7616 20.5152 13 19.5 13Z" fill="white"/>
<path d="M7.58341 26.0008C8.78002 26.0008 9.75007 25.0308 9.75007 23.8341C9.75007 22.6375 8.78002 21.6675 7.58341 21.6675C6.3868 21.6675 5.41675 22.6375 5.41675 23.8341C5.41675 25.0308 6.3868 26.0008 7.58341 26.0008Z" fill="white"/>
<path d="M18.4167 26.0008C19.6133 26.0008 20.5833 25.0308 20.5833 23.8341C20.5833 22.6375 19.6133 21.6675 18.4167 21.6675C17.22 21.6675 16.25 22.6375 16.25 23.8341C16.25 25.0308 17.22 26.0008 18.4167 26.0008Z" fill="white"/>
<path d="M16.2498 7.5839H18.4165V9.75057C18.4165 10.0379 18.5306 10.3134 18.7338 10.5166C18.937 10.7198 19.2125 10.8339 19.4998 10.8339C19.7871 10.8339 20.0627 10.7198 20.2659 10.5166C20.469 10.3134 20.5832 10.0379 20.5832 9.75057V7.5839H22.7498C23.0371 7.5839 23.3127 7.46977 23.5159 7.2666C23.719 7.06344 23.8332 6.78789 23.8332 6.50057C23.8332 6.21325 23.719 5.9377 23.5159 5.73454C23.3127 5.53137 23.0371 5.41724 22.7498 5.41724H20.5832V3.25057C20.5832 2.96325 20.469 2.6877 20.2659 2.48454C20.0627 2.28137 19.7871 2.16724 19.4998 2.16724C19.2125 2.16724 18.937 2.28137 18.7338 2.48454C18.5306 2.6877 18.4165 2.96325 18.4165 3.25057V5.41724H16.2498C15.9625 5.41724 15.687 5.53137 15.4838 5.73454C15.2806 5.9377 15.1665 6.21325 15.1665 6.50057C15.1665 6.78789 15.2806 7.06344 15.4838 7.2666C15.687 7.46977 15.9625 7.5839 16.2498 7.5839Z" fill="white"/>
</g>
<defs>
<clipPath id="clip0_131_2958">
<rect width="26" height="26" fill="white"/>
</clipPath>
</defs>
</svg>
