<svg width="43" height="43" viewBox="0 0 43 43" fill="none" xmlns="http://www.w3.org/2000/svg">
<g clip-path="url(#clip0_279_2459)">
<path d="M32.25 21.5C30.3623 21.5022 28.5073 21.0067 26.8722 20.0634C25.237 19.1202 23.8794 17.7625 22.9363 16.1273C21.9931 14.4921 21.4977 12.6371 21.5 10.7494C21.5023 8.86165 22.0023 7.0079 22.9495 5.375H7.60025L7.525 4.74433C7.3706 3.43749 6.74215 2.23269 5.75875 1.35827C4.77536 0.483847 3.50535 0.000560499 2.18942 0L1.79167 0C1.31649 0 0.86077 0.188764 0.524767 0.524767C0.188764 0.86077 0 1.31649 0 1.79167C0 2.26685 0.188764 2.72256 0.524767 3.05857C0.86077 3.39457 1.31649 3.58333 1.79167 3.58333H2.18942C2.62826 3.58339 3.05181 3.74451 3.37975 4.03612C3.70769 4.32773 3.9172 4.72955 3.96854 5.16538L6.43388 26.1279C6.68982 28.308 7.73727 30.3182 9.37742 31.777C11.0176 33.2358 13.1362 34.0417 15.3313 34.0417H34.0417C34.5168 34.0417 34.9726 33.8529 35.3086 33.5169C35.6446 33.1809 35.8333 32.7252 35.8333 32.25C35.8333 31.7748 35.6446 31.3191 35.3086 30.9831C34.9726 30.6471 34.5168 30.4583 34.0417 30.4583H15.3313C14.222 30.4556 13.1408 30.1097 12.2359 29.4682C11.331 28.8266 10.6467 27.9208 10.277 26.875H31.6355C33.7358 26.8751 35.7694 26.1372 37.381 24.7903C38.9926 23.4433 40.0796 21.5729 40.4522 19.5059L40.8787 17.1427C39.882 18.4939 38.582 19.5921 37.0833 20.349C35.5845 21.1058 33.929 21.5001 32.25 21.5V21.5Z" fill="black"/>
<path d="M12.5416 43.0011C14.5206 43.0011 16.1249 41.3968 16.1249 39.4178C16.1249 37.4388 14.5206 35.8345 12.5416 35.8345C10.5626 35.8345 8.95825 37.4388 8.95825 39.4178C8.95825 41.3968 10.5626 43.0011 12.5416 43.0011Z" fill="#040404"/>
<path d="M30.4583 43.0011C32.4373 43.0011 34.0417 41.3968 34.0417 39.4178C34.0417 37.4388 32.4373 35.8345 30.4583 35.8345C28.4793 35.8345 26.875 37.4388 26.875 39.4178C26.875 41.3968 28.4793 43.0011 30.4583 43.0011Z" fill="black"/>
<path d="M28.1885 16.0277C28.4967 16.3605 28.8691 16.6274 29.2833 16.8122C29.6975 16.9969 30.1448 17.0958 30.5983 17.1027H30.6574C31.1019 17.1042 31.5422 17.0174 31.9528 16.8473C32.3634 16.6772 32.7361 16.4272 33.0493 16.1119L40.7033 8.45794C41.0409 8.12104 41.2309 7.66382 41.2314 7.18686C41.2319 6.70991 41.0429 6.25229 40.706 5.91467C40.3691 5.57705 39.9119 5.3871 39.4349 5.3866C38.958 5.38609 38.5003 5.57508 38.1627 5.91198L30.661 13.4262L28.4501 11.0541C28.1256 10.7065 27.6762 10.502 27.201 10.4857C26.7257 10.4694 26.2634 10.6426 25.9158 10.9672C25.5682 11.2917 25.3638 11.7411 25.3475 12.2163C25.3312 12.6916 25.5044 13.1539 25.8289 13.5015L28.1885 16.0277Z" fill="#040404"/>
</g>
<defs>
<clipPath id="clip0_279_2459">
<rect width="43" height="43" fill="white"/>
</clipPath>
</defs>
</svg>
