<svg width="30" height="30" viewBox="0 0 30 30" fill="none" xmlns="http://www.w3.org/2000/svg">
<path d="M22.5 0H7.5C3.3645 0 0 3.3645 0 7.5V22.5C0 26.6355 3.3645 30 7.5 30H15V17.5H13.25C12.5597 17.5 12 16.9403 12 16.25C12 15.5597 12.5597 15 13.25 15H15V12.7813C15 9.86917 17.3692 7.5 20.2813 7.5H23C23.6903 7.5 24.25 8.05967 24.25 8.75C24.25 9.44033 23.6903 10 23 10H20.2813C18.7477 10 17.5 11.2477 17.5 12.7813V15H22.5C23.1903 15 23.75 15.5597 23.75 16.25C23.75 16.9403 23.1903 17.5 22.5 17.5H17.5V30H22.5C26.6355 30 30 26.6355 30 22.5V7.5C30 3.3645 26.6355 0 22.5 0Z" fill="white"/>
</svg>
