<svg width="31" height="31" viewBox="0 0 31 31" fill="none" xmlns="http://www.w3.org/2000/svg">
<g clip-path="url(#clip0_78_2419)">
<path d="M1.29323 6.13637H4.82687C5.5243 8.70246 8.16988 10.2173 10.736 9.51988C12.3841 9.07194 13.6715 7.78448 14.1195 6.13637H29.707C30.4203 6.13637 30.9986 5.55815 30.9986 4.84486C30.9986 4.13156 30.4203 3.55334 29.707 3.55334H14.1195C13.422 0.987193 10.7765 -0.52766 8.21038 0.169771C6.56228 0.617712 5.27482 1.90517 4.82687 3.55328H1.29323C0.579935 3.55328 0.00170898 4.1315 0.00170898 4.8448C0.00170898 5.55809 0.579935 6.13637 1.29323 6.13637Z" fill="#0A3641"/>
<path d="M29.707 14.2091H26.1734C25.4774 11.6434 22.8332 10.1277 20.2675 10.8237C18.6181 11.2711 17.3295 12.5596 16.8821 14.2091H1.29323C0.579935 14.2091 0.00170898 14.7873 0.00170898 15.5006C0.00170898 16.2139 0.579935 16.7921 1.29323 16.7921H16.8821C17.5781 19.3579 20.2222 20.8736 22.788 20.1776C24.4374 19.7301 25.7259 18.4416 26.1734 16.7921H29.707C30.4203 16.7921 30.9986 16.2139 30.9986 15.5006C30.9986 14.7873 30.4203 14.2091 29.707 14.2091Z" fill="#0A3641"/>
<path d="M29.707 24.8637H14.1195C13.422 22.2976 10.7765 20.7828 8.21038 21.4802C6.56228 21.9282 5.27482 23.2156 4.82687 24.8637H1.29323C0.579935 24.8637 0.00170898 25.442 0.00170898 26.1552C0.00170898 26.8685 0.579935 27.4468 1.29323 27.4468H4.82687C5.5243 30.0128 8.16988 31.5277 10.736 30.8303C12.3841 30.3823 13.6715 29.0949 14.1195 27.4468H29.707C30.4203 27.4468 30.9986 26.8685 30.9986 26.1552C30.9986 25.442 30.4203 24.8637 29.707 24.8637Z" fill="#0A3641"/>
</g>
<defs>
<clipPath id="clip0_78_2419">
<rect width="31" height="31" fill="white"/>
</clipPath>
</defs>
</svg>
