<svg width="40" height="40" viewBox="0 0 40 40" fill="none" xmlns="http://www.w3.org/2000/svg">
<path d="M25.4773 20.0345C25.4773 23.0737 23.0047 25.5463 19.9655 25.5463C16.9263 25.5463 14.4537 23.0737 14.4537 20.0345C14.4537 16.9953 16.9263 14.5227 19.9655 14.5227C23.0047 14.5227 25.4773 16.9952 25.4773 20.0345ZM35 12.5V27.5C35 31.6355 31.6355 35 27.5 35H12.5C8.3645 35 5 31.6355 5 27.5V12.5C5 8.3645 8.3645 5 12.5 5H27.5C31.6355 5 35 8.3645 35 12.5ZM28.181 20.0345C28.181 15.5043 24.4957 11.819 19.9655 11.819C15.4353 11.819 11.75 15.5043 11.75 20.0345C11.75 24.5647 15.4353 28.25 19.9655 28.25C24.4957 28.25 28.181 24.5647 28.181 20.0345ZM31.25 10.703C31.25 9.6245 30.3755 8.75 29.297 8.75C28.2185 8.75 27.344 9.6245 27.344 10.703C27.344 11.7815 28.2185 12.656 29.297 12.656C30.3755 12.6558 31.25 11.7815 31.25 10.703Z" fill="white"/>
</svg>
