<svg width="30" height="30" viewBox="0 0 30 30" fill="none" xmlns="http://www.w3.org/2000/svg">
<path d="M20.4773 15.0345C20.4773 18.0737 18.0047 20.5463 14.9655 20.5463C11.9263 20.5463 9.45367 18.0737 9.45367 15.0345C9.45367 11.9953 11.9263 9.52267 14.9655 9.52267C18.0047 9.52267 20.4773 11.9952 20.4773 15.0345ZM30 7.5V22.5C30 26.6355 26.6355 30 22.5 30H7.5C3.3645 30 0 26.6355 0 22.5V7.5C0 3.3645 3.3645 0 7.5 0H22.5C26.6355 0 30 3.3645 30 7.5ZM23.181 15.0345C23.181 10.5043 19.4957 6.819 14.9655 6.819C10.4353 6.819 6.75 10.5043 6.75 15.0345C6.75 19.5647 10.4353 23.25 14.9655 23.25C19.4957 23.25 23.181 19.5647 23.181 15.0345ZM26.25 5.703C26.25 4.6245 25.3755 3.75 24.297 3.75C23.2185 3.75 22.344 4.6245 22.344 5.703C22.344 6.7815 23.2185 7.656 24.297 7.656C25.3755 7.65583 26.25 6.7815 26.25 5.703Z" fill="white"/>
</svg>
