<svg width="47" height="40" viewBox="0 0 47 40" fill="none" xmlns="http://www.w3.org/2000/svg">
<g clip-path="url(#clip0_170_4783)">
<path d="M35.0159 6.28538C34.5822 5.76497 34.0393 5.34642 33.4257 5.05946C32.8121 4.77251 32.1428 4.62417 31.4654 4.625H6.53975L6.475 4.08387C6.34249 2.9591 5.80188 1.92205 4.95567 1.16932C4.10946 0.416594 3.01647 0.000526932 1.88392 0L1.54167 0C1.13279 0 0.740662 0.162425 0.451544 0.451544C0.162425 0.740662 0 1.13279 0 1.54167C0 1.95054 0.162425 2.34267 0.451544 2.63179C0.740662 2.92091 1.13279 3.08333 1.54167 3.08333H1.88392C2.26152 3.08338 2.62598 3.22202 2.90816 3.47294C3.19034 3.72386 3.37061 4.06961 3.41479 4.44462L5.53613 22.4821C5.75636 24.358 6.65765 26.0877 8.06894 27.343C9.48023 28.5983 11.3033 29.2917 13.192 29.2917H29.2917C29.7005 29.2917 30.0927 29.1292 30.3818 28.8401C30.6709 28.551 30.8333 28.1589 30.8333 27.75C30.8333 27.3411 30.6709 26.949 30.3818 26.6599C30.0927 26.3708 29.7005 26.2083 29.2917 26.2083H13.192C12.2378 26.2057 11.3078 25.9079 10.5295 25.3559C9.75115 24.8039 9.16261 24.0246 8.84454 23.125H27.2212C29.0285 23.1251 30.7784 22.4902 32.1651 21.3312C33.5518 20.1722 34.4871 18.5627 34.8078 16.7841L36.018 10.0717C36.1388 9.40572 36.1116 8.72131 35.9384 8.06698C35.7653 7.41265 35.4503 6.80442 35.0159 6.28538Z" fill="black"/>
<path d="M10.7915 37.001C12.4944 37.001 13.8748 35.6206 13.8748 33.9177C13.8748 32.2148 12.4944 30.8344 10.7915 30.8344C9.08864 30.8344 7.70819 32.2148 7.70819 33.9177C7.70819 35.6206 9.08864 37.001 10.7915 37.001Z" fill="black"/>
<path d="M26.2083 37.001C27.9112 37.001 29.2917 35.6206 29.2917 33.9177C29.2917 32.2148 27.9112 30.8344 26.2083 30.8344C24.5055 30.8344 23.125 32.2148 23.125 33.9177C23.125 35.6206 24.5055 37.001 26.2083 37.001Z" fill="black"/>
</g>
<g filter="url(#filter0_d_170_4783)">
<circle cx="34.4999" cy="23.5" r="8.5" fill="#FB3333"/>
</g>
<path d="M31.4157 28V26.791C31.9704 26.3317 32.5077 25.8767 33.0277 25.426C33.5564 24.9753 34.0244 24.529 34.4317 24.087C34.8477 23.645 35.1771 23.216 35.4197 22.8C35.6711 22.3753 35.7967 21.9637 35.7967 21.565C35.7967 21.1923 35.6927 20.863 35.4847 20.577C35.2854 20.291 34.9517 20.148 34.4837 20.148C34.0071 20.148 33.6474 20.304 33.4047 20.616C33.1621 20.928 33.0407 21.305 33.0407 21.747H31.4287C31.4461 21.0797 31.5934 20.525 31.8707 20.083C32.1481 19.6323 32.5164 19.2987 32.9757 19.082C33.4351 18.8567 33.9507 18.744 34.5227 18.744C35.4501 18.744 36.1694 18.9997 36.6807 19.511C37.2007 20.0137 37.4607 20.668 37.4607 21.474C37.4607 21.9767 37.3437 22.4663 37.1097 22.943C36.8844 23.4197 36.5854 23.879 36.2127 24.321C35.8401 24.763 35.4371 25.179 35.0037 25.569C34.5704 25.9503 34.1501 26.3057 33.7427 26.635H37.6817V28H31.4157Z" fill="white"/>
<defs>
<filter id="filter0_d_170_4783" x="21.9999" y="15" width="25" height="25" filterUnits="userSpaceOnUse" color-interpolation-filters="sRGB">
<feFlood flood-opacity="0" result="BackgroundImageFix"/>
<feColorMatrix in="SourceAlpha" type="matrix" values="0 0 0 0 0 0 0 0 0 0 0 0 0 0 0 0 0 0 127 0" result="hardAlpha"/>
<feOffset dy="4"/>
<feGaussianBlur stdDeviation="2"/>
<feComposite in2="hardAlpha" operator="out"/>
<feColorMatrix type="matrix" values="0 0 0 0 0 0 0 0 0 0 0 0 0 0 0 0 0 0 0.25 0"/>
<feBlend mode="normal" in2="BackgroundImageFix" result="effect1_dropShadow_170_4783"/>
<feBlend mode="normal" in="SourceGraphic" in2="effect1_dropShadow_170_4783" result="shape"/>
</filter>
<clipPath id="clip0_170_4783">
<rect width="37" height="37" fill="white"/>
</clipPath>
</defs>
</svg>
