<svg width="30" height="30" viewBox="0 0 30 30" fill="none" xmlns="http://www.w3.org/2000/svg">
<path d="M4.33282 29.1666C3.90999 29.1666 3.50149 29.0134 3.18265 28.7351C2.45565 28.1006 2.38032 26.9929 3.01482 26.2659L12.5275 15.1714L14.7492 17.9486L5.65165 28.5671C5.31949 28.9481 4.83882 29.1666 4.33282 29.1666ZM15.2507 12.0513L24.3482 1.43275C24.6803 1.05192 25.1612 0.833252 25.6672 0.833252C26.09 0.833252 26.4987 0.986585 26.8175 1.26492C27.5445 1.89942 27.6197 3.00709 26.9852 3.73409L17.4725 14.8286L15.2507 12.0513Z" fill="#FFFCFC"/>
<path d="M28.8927 27.1358L8.55932 1.30242C8.32216 1.00592 7.96316 0.833252 7.58332 0.833252H2.08332C1.60282 0.833252 1.16482 1.10859 0.956656 1.54175C0.748489 1.97492 0.806989 2.48892 1.10716 2.86409L21.4405 28.6974C21.6777 28.9939 22.0368 29.1666 22.4165 29.1666H27.9165C28.397 29.1666 28.835 28.8913 29.0432 28.4581C29.2513 28.0249 29.1928 27.5109 28.8927 27.1358Z" fill="#FFFCFC"/>
</svg>
